# xmcd
#
# Track frame offsets: 
#        150
#        15655
#        31705
#        45883
#        61178
#        75295
#        94535
#        110783
#        124640
#        135040
#        154605
#        168108
#        178325
#
# Disc length: 2568 seconds
#
# Revision: 0
# Processed by: cddbd v1.5.2PL0 Copyright (c) Steve Scherf et al.
# Submitted via: ExactAudioCopy v0.99pb5
#
DISCID=860a060d
DTITLE=Bloosblasters - Fnitter and Skratt
DYEAR=2010
DGENRE=Blues
TTITLE0=Min Cowboyhatt
TTITLE1=Din Klumpeduns
TTITLE2=Jag Lovar och Svär
TTITLE3=Fnitter och Skratt
TTITLE4=Har Bryggt Maj Mitt Eget Kaffe
TTITLE5=Tradebloos
TTITLE6=Mina Barn E Fina, Dina Barn E Till Besvär
TTITLE7=Att Det E Brått Ibland
TTITLE8=Vad E Det För Fel På Gubben?
TTITLE9=Om Du Taggar Ner
TTITLE10=Vad Du Än Gör, Snälla Gör Det En Gång Till
TTITLE11=DansbandsDennis Damernas Diamant
TTITLE12=En Billig Snut
EXTD=
EXTT0=
EXTT1=
EXTT2=
EXTT3=
EXTT4=
EXTT5=
EXTT6=
EXTT7=
EXTT8=
EXTT9=
EXTT10=
EXTT11=
EXTT12=
PLAYORDER=
